<svg width="30" height="30" viewBox="0 0 30 30" fill="none" xmlns="http://www.w3.org/2000/svg">
<path d="M9.44593 13.5118C9.15159 14.6103 9.1896 15.7714 9.55515 16.8483C9.92071 17.9252 10.5974 18.8695 11.4996 19.5618C12.4019 20.2541 13.4891 20.6634 14.6239 20.7377C15.7587 20.8121 16.8901 20.5483 17.875 19.9797" stroke="black" stroke-linecap="round"/>
<path d="M20.5541 16.4882C20.8484 15.3897 20.8104 14.2286 20.4448 13.1517C20.0793 12.0748 19.4026 11.1305 18.5004 10.4382C17.5981 9.74591 16.5109 9.33669 15.3761 9.26231C14.2413 9.18793 13.1099 9.45174 12.125 10.0204" stroke="black" stroke-linecap="round"/>
<path d="M6.75 15.5L9.25 13L11.75 15.5" stroke="black" stroke-linecap="round" stroke-linejoin="round"/>
<path d="M18.25 14.5L20.75 17L23.25 14.5" stroke="black" stroke-linecap="round" stroke-linejoin="round"/>
</svg>
